<svg width="181" height="208" viewBox="0 0 181 208" fill="none" xmlns="http://www.w3.org/2000/svg">
<g filter="url(#filter0_f_2101_124)">
<path d="M70.5 91.214C70.5 102.221 79.4285 111.144 90.4431 111.144C101.458 111.144 110.386 102.221 110.386 91.214C110.386 80.2074 101.458 71.2842 90.4431 71.2842C79.4285 71.2842 70.5 80.2074 70.5 91.214Z" fill="#D8F3DC" fill-opacity="0.1" stroke="#D8F3DC"/>
<g clip-path="url(#clip0_2101_124)">
<path d="M91.0444 91.4643C91.0444 92.8749 88.7565 94.0181 85.9336 94.0181C83.1108 94.0181 80.8229 92.8749 80.8229 91.4643C80.8229 90.0538 83.1108 88.9106 85.9336 88.9106C88.7565 88.9106 91.0444 90.0538 91.0444 91.4643ZM91.0444 96.1462V97.8487C91.0444 99.5469 88.8476 100.828 85.9336 100.828C83.0197 100.828 80.8229 99.5469 80.8229 97.8487V96.1462C80.8229 97.824 82.9524 99.1255 85.9336 99.1255C88.9149 99.1255 91.0444 97.824 91.0444 96.1462ZM91.0444 92.7412V94.4437C91.0444 96.1419 88.8476 97.423 85.9336 97.423C83.0197 97.423 80.8229 96.1419 80.8229 94.4437V92.7412C80.8229 94.419 82.9524 95.7206 85.9336 95.7206C88.9149 95.7206 91.0444 94.419 91.0444 92.7412ZM96.1552 85.5057H89.3408V87.2081H96.1552V85.5057ZM97.0069 80.3982H88.489C86.1406 80.3982 84.23 82.3075 84.23 84.6544V87.3265C84.7692 87.249 85.3391 87.2081 85.9336 87.2081C86.5282 87.2081 87.098 87.249 87.6372 87.3265V85.5057C87.6372 84.5667 88.4013 83.8032 89.3408 83.8032H96.1552C97.0947 83.8032 97.8587 84.5667 97.8587 85.5057V87.2081C97.8587 88.1471 97.0947 88.9106 96.1552 88.9106H91.4967C92.0546 89.3992 92.4439 89.9747 92.6279 90.6131H93.5989C94.07 90.6131 94.4507 90.9945 94.4507 91.4643V92.3156C94.4507 92.7855 94.07 93.1668 93.5989 93.1668H92.7471V94.8693H97.0061C97.4771 94.8693 97.8579 95.2507 97.8579 95.7206C97.8579 96.1904 97.4771 96.5718 97.0061 96.5718H92.7471V97.8487C92.7471 99.0106 92.2216 100.036 91.3102 100.828H97.0061C99.3545 100.828 101.265 98.9187 101.265 96.5718V84.6544C101.265 82.3075 99.3553 80.3982 97.0069 80.3982ZM97.8587 92.3156C97.8587 92.7855 97.478 93.1668 97.0069 93.1668C96.5359 93.1668 96.1552 92.7855 96.1552 92.3156V91.4643C96.1552 90.9945 96.5359 90.6131 97.0069 90.6131C97.478 90.6131 97.8587 90.9945 97.8587 91.4643V92.3156Z" fill="#D8F3DC"/>
</g>
</g>
<path d="M70.5 91.214C70.5 102.221 79.4285 111.144 90.4431 111.144C101.458 111.144 110.386 102.221 110.386 91.214C110.386 80.2074 101.458 71.2842 90.4431 71.2842C79.4285 71.2842 70.5 80.2074 70.5 91.214Z" fill="#D8F3DC" fill-opacity="0.1" stroke="#D8F3DC"/>
<g clip-path="url(#clip1_2101_124)">
<path d="M91.0444 91.4643C91.0444 92.8749 88.7565 94.0181 85.9336 94.0181C83.1108 94.0181 80.8229 92.8749 80.8229 91.4643C80.8229 90.0538 83.1108 88.9106 85.9336 88.9106C88.7565 88.9106 91.0444 90.0538 91.0444 91.4643ZM91.0444 96.1462V97.8487C91.0444 99.5469 88.8476 100.828 85.9336 100.828C83.0197 100.828 80.8229 99.5469 80.8229 97.8487V96.1462C80.8229 97.824 82.9524 99.1255 85.9336 99.1255C88.9149 99.1255 91.0444 97.824 91.0444 96.1462ZM91.0444 92.7412V94.4437C91.0444 96.1419 88.8476 97.423 85.9336 97.423C83.0197 97.423 80.8229 96.1419 80.8229 94.4437V92.7412C80.8229 94.419 82.9524 95.7206 85.9336 95.7206C88.9149 95.7206 91.0444 94.419 91.0444 92.7412ZM96.1552 85.5057H89.3408V87.2081H96.1552V85.5057ZM97.0069 80.3982H88.489C86.1406 80.3982 84.23 82.3075 84.23 84.6544V87.3265C84.7692 87.249 85.3391 87.2081 85.9336 87.2081C86.5282 87.2081 87.098 87.249 87.6372 87.3265V85.5057C87.6372 84.5667 88.4013 83.8032 89.3408 83.8032H96.1552C97.0947 83.8032 97.8587 84.5667 97.8587 85.5057V87.2081C97.8587 88.1471 97.0947 88.9106 96.1552 88.9106H91.4967C92.0546 89.3992 92.4439 89.9747 92.6279 90.6131H93.5989C94.07 90.6131 94.4507 90.9945 94.4507 91.4643V92.3156C94.4507 92.7855 94.07 93.1668 93.5989 93.1668H92.7471V94.8693H97.0061C97.4771 94.8693 97.8579 95.2507 97.8579 95.7206C97.8579 96.1904 97.4771 96.5718 97.0061 96.5718H92.7471V97.8487C92.7471 99.0106 92.2216 100.036 91.3102 100.828H97.0061C99.3545 100.828 101.265 98.9187 101.265 96.5718V84.6544C101.265 82.3075 99.3553 80.3982 97.0069 80.3982ZM97.8587 92.3156C97.8587 92.7855 97.478 93.1668 97.0069 93.1668C96.5359 93.1668 96.1552 92.7855 96.1552 92.3156V91.4643C96.1552 90.9945 96.5359 90.6131 97.0069 90.6131C97.478 90.6131 97.8587 90.9945 97.8587 91.4643V92.3156Z" fill="#D8F3DC"/>
</g>
<line y1="-0.5" x2="55.3165" y2="-0.5" transform="matrix(1 0 0 -1 109.683 90.0122)" stroke="url(#paint0_linear_2101_124)"/>
<line y1="-0.5" x2="97.3421" y2="-0.5" transform="matrix(0 1 1 0 91.6455 110.442)" stroke="url(#paint1_linear_2101_124)"/>
<defs>
<filter id="filter0_f_2101_124" x="0" y="0.78418" width="180.886" height="180.86" filterUnits="userSpaceOnUse" color-interpolation-filters="sRGB">
<feFlood flood-opacity="0" result="BackgroundImageFix"/>
<feBlend mode="normal" in="SourceGraphic" in2="BackgroundImageFix" result="shape"/>
<feGaussianBlur stdDeviation="35" result="effect1_foregroundBlur_2101_124"/>
</filter>
<linearGradient id="paint0_linear_2101_124" x1="0" y1="0.5" x2="55.3165" y2="0.5" gradientUnits="userSpaceOnUse">
<stop stop-color="#D8F3DC"/>
<stop offset="1" stop-color="#737373" stop-opacity="0"/>
</linearGradient>
<linearGradient id="paint1_linear_2101_124" x1="0" y1="0.5" x2="97.3421" y2="0.5" gradientUnits="userSpaceOnUse">
<stop stop-color="#D8F3DC"/>
<stop offset="1" stop-color="#737373" stop-opacity="0"/>
</linearGradient>
<clipPath id="clip0_2101_124">
<rect width="20.443" height="20.4298" fill="white" transform="translate(80.8229 80.3982)"/>
</clipPath>
<clipPath id="clip1_2101_124">
<rect width="20.443" height="20.4298" fill="white" transform="translate(80.8229 80.3982)"/>
</clipPath>
</defs>
</svg>
