<svg width="181" height="208" viewBox="0 0 181 208" fill="none" xmlns="http://www.w3.org/2000/svg">
<g filter="url(#filter0_f_2101_140)">
<path d="M97.6969 86.0856C97.5715 86.1991 97.4092 86.2635 97.24 86.2669H81.1812C80.612 86.2669 80.3233 85.6159 80.7182 85.2344L83.3547 82.6926C83.4777 82.5745 83.6411 82.5075 83.8117 82.5054H99.9326C100.509 82.5054 100.791 83.1623 100.391 83.5439L97.6969 86.0856ZM97.6969 98.6099C97.5716 98.7228 97.4087 98.7853 97.24 98.7851H81.1812C80.612 98.7851 80.3233 98.1402 80.7182 97.7586L83.3547 95.2109C83.4782 95.0944 83.6419 95.0299 83.8117 95.0307H99.9326C100.509 95.0307 100.791 95.6816 100.391 96.0622L97.6969 98.6099ZM97.6969 88.9458C97.5716 88.8328 97.4087 88.7704 97.24 88.7705H81.1812C80.612 88.7705 80.3233 89.4155 80.7182 89.797L83.3547 92.3447C83.4802 92.4583 83.6425 92.5226 83.8117 92.526H99.9326C100.509 92.526 100.791 91.8751 100.391 91.4935L97.6969 88.9458Z" fill="#D8F3DC"/>
<path d="M110.5 90.6452C110.5 101.652 101.571 110.575 90.5569 110.575C79.5424 110.575 70.6139 101.652 70.6139 90.6452C70.6139 79.6385 79.5424 70.7153 90.5569 70.7153C101.571 70.7153 110.5 79.6385 110.5 90.6452Z" fill="#D8F3DC" fill-opacity="0.1" stroke="#D8F3DC"/>
</g>
<path d="M110.5 90.6452C110.5 101.652 101.571 110.575 90.5569 110.575C79.5424 110.575 70.6139 101.652 70.6139 90.6452C70.6139 79.6385 79.5424 70.7153 90.5569 70.7153C101.571 70.7153 110.5 79.6385 110.5 90.6452Z" fill="#D8F3DC" fill-opacity="0.1" stroke="#D8F3DC"/>
<g clip-path="url(#clip0_2101_140)">
<path d="M91.0444 90.4643C91.0444 91.8749 88.7565 93.0181 85.9336 93.0181C83.1108 93.0181 80.8229 91.8749 80.8229 90.4643C80.8229 89.0538 83.1108 87.9106 85.9336 87.9106C88.7565 87.9106 91.0444 89.0538 91.0444 90.4643ZM91.0444 95.1462V96.8487C91.0444 98.5469 88.8476 99.828 85.9336 99.828C83.0197 99.828 80.8229 98.5469 80.8229 96.8487V95.1462C80.8229 96.824 82.9524 98.1255 85.9336 98.1255C88.9149 98.1255 91.0444 96.824 91.0444 95.1462ZM91.0444 91.7412V93.4437C91.0444 95.1419 88.8476 96.423 85.9336 96.423C83.0197 96.423 80.8229 95.1419 80.8229 93.4437V91.7412C80.8229 93.419 82.9524 94.7206 85.9336 94.7206C88.9149 94.7206 91.0444 93.419 91.0444 91.7412ZM96.1552 84.5057H89.3408V86.2081H96.1552V84.5057ZM97.0069 79.3982H88.489C86.1406 79.3982 84.23 81.3075 84.23 83.6544V86.3265C84.7692 86.249 85.3391 86.2081 85.9336 86.2081C86.5282 86.2081 87.098 86.249 87.6372 86.3265V84.5057C87.6372 83.5667 88.4013 82.8032 89.3408 82.8032H96.1552C97.0947 82.8032 97.8587 83.5667 97.8587 84.5057V86.2081C97.8587 87.1471 97.0947 87.9106 96.1552 87.9106H91.4967C92.0546 88.3992 92.4439 88.9747 92.6279 89.6131H93.5989C94.07 89.6131 94.4507 89.9945 94.4507 90.4643V91.3156C94.4507 91.7855 94.07 92.1668 93.5989 92.1668H92.7471V93.8693H97.0061C97.4771 93.8693 97.8579 94.2507 97.8579 94.7206C97.8579 95.1904 97.4771 95.5718 97.0061 95.5718H92.7471V96.8487C92.7471 98.0106 92.2216 99.0355 91.3102 99.828H97.0061C99.3545 99.828 101.265 97.9187 101.265 95.5718V83.6544C101.265 81.3075 99.3553 79.3982 97.0069 79.3982ZM97.8587 91.3156C97.8587 91.7855 97.478 92.1668 97.0069 92.1668C96.5359 92.1668 96.1552 91.7855 96.1552 91.3156V90.4643C96.1552 89.9945 96.5359 89.6131 97.0069 89.6131C97.478 89.6131 97.8587 89.9945 97.8587 90.4643V91.3156Z" fill="#D8F3DC"/>
</g>
<line x1="71.3164" y1="89.9434" x2="16" y2="89.9434" stroke="url(#paint0_linear_2101_140)"/>
<line x1="89.8545" y1="109.873" x2="89.8545" y2="207.215" stroke="url(#paint1_linear_2101_140)"/>
<defs>
<filter id="filter0_f_2101_140" x="0.113892" y="0.215332" width="180.886" height="180.86" filterUnits="userSpaceOnUse" color-interpolation-filters="sRGB">
<feFlood flood-opacity="0" result="BackgroundImageFix"/>
<feBlend mode="normal" in="SourceGraphic" in2="BackgroundImageFix" result="shape"/>
<feGaussianBlur stdDeviation="35" result="effect1_foregroundBlur_2101_140"/>
</filter>
<linearGradient id="paint0_linear_2101_140" x1="71.3164" y1="88.9434" x2="16" y2="88.9434" gradientUnits="userSpaceOnUse">
<stop stop-color="#D8F3DC"/>
<stop offset="1" stop-color="#737373" stop-opacity="0"/>
</linearGradient>
<linearGradient id="paint1_linear_2101_140" x1="88.8545" y1="109.873" x2="88.8545" y2="207.215" gradientUnits="userSpaceOnUse">
<stop stop-color="#D8F3DC"/>
<stop offset="1" stop-color="#737373" stop-opacity="0"/>
</linearGradient>
<clipPath id="clip0_2101_140">
<rect width="20.443" height="20.4298" fill="white" transform="translate(80.8229 79.3982)"/>
</clipPath>
</defs>
</svg>
