<svg xmlns="http://www.w3.org/2000/svg" xmlns:xlink="http://www.w3.org/1999/xlink" width="500" zoomAndPan="magnify" viewBox="0 0 375 374.999991" height="500" preserveAspectRatio="xMidYMid meet" version="1.0"><defs><g/><clipPath id="4cf8473654"><path d="M 118.441406 72.25 L 233.941406 72.25 L 233.941406 298.75 L 118.441406 298.75 Z M 118.441406 72.25 " clip-rule="nonzero"/></clipPath><clipPath id="b51144b388"><path d="M 118.441406 72.25 L 186 72.25 L 186 298.75 L 118.441406 298.75 Z M 118.441406 72.25 " clip-rule="nonzero"/></clipPath></defs><g fill="#d8f3dc" fill-opacity="1"><g transform="translate(85.939902, 299.046718)"><g><path d="M 184.796875 -226.203125 L 177 -176.40625 L 105.90625 -176.40625 L 99.90625 -138.59375 L 164.40625 -138.59375 L 156.59375 -88.796875 L 92.09375 -88.796875 L 78 0 L 19.203125 0 L 54.90625 -226.203125 Z M 184.796875 -226.203125 "/></g></g></g><g clip-path="url(#4cf8473654)"><path fill="#081c15" d="M 175.632812 72.25 L 233.785156 72.25 L 187.664062 150.394531 L 221.75 150.394531 L 118.484375 298.855469 L 164.605469 183.710938 L 127.511719 185.542969 Z M 175.632812 72.25 " fill-opacity="1" fill-rule="nonzero"/></g><g clip-path="url(#b51144b388)"><path fill="#52b788" d="M 175.632812 72.25 L 185.65625 72.25 L 127.511719 185.542969 Z M 118.484375 298.855469 L 171.625 183.710938 L 164.605469 183.710938 Z M 118.484375 298.855469 " fill-opacity="1" fill-rule="nonzero"/></g></svg>