<svg width="20" height="20" viewBox="0 0 20 20" fill="none" xmlns="http://www.w3.org/2000/svg">
<path d="M15.9375 6.20585C15.8332 6.30033 15.6982 6.3539 15.5575 6.35668H2.20334C1.73 6.35668 1.49 5.81502 1.81834 5.49835L4.01084 3.38335C4.11297 3.28471 4.24886 3.22869 4.39084 3.22668H17.7967C18.2758 3.22668 18.5108 3.77335 18.1775 4.09168L15.9375 6.20585Z" fill="#1B4332"/>
<path d="M15.9375 16.6275C15.8333 16.7215 15.6979 16.7734 15.5575 16.7733H2.20334C1.73 16.7733 1.49 16.2367 1.81834 15.9192L4.01084 13.7992C4.11342 13.7019 4.24949 13.6479 4.39084 13.6483H17.7967C18.2758 13.6483 18.5108 14.19 18.1775 14.5075L15.9375 16.6275Z" fill="#1B4332"/>
<path d="M15.9375 8.58578C15.8333 8.49178 15.6979 8.43981 15.5575 8.43994H2.20334C1.73 8.43994 1.49 8.97661 1.81834 9.29411L4.01084 11.4141C4.11516 11.5086 4.25012 11.5622 4.39084 11.5649H17.7967C18.2758 11.5649 18.5108 11.0233 18.1775 10.7058L15.9375 8.58578Z" fill="#1B4332"/>
</svg>
