<svg width="105" height="106" viewBox="0 0 105 106" fill="none" xmlns="http://www.w3.org/2000/svg">
<path d="M13.125 48.3977H0C0 29.0996 15.7019 13.3977 35 13.3977H87.5V0.272705L103.718 16.8671C105.424 18.5777 105.424 21.3471 103.718 23.0533L87.5 39.6477V26.5227H35C22.9381 26.5227 13.125 36.3358 13.125 48.3977ZM70 79.0227H17.5V65.8977L1.28188 82.4921C-0.424375 84.2027 -0.424375 86.9721 1.28188 88.6783L17.5 105.273V92.1477H70C89.2981 92.1477 105 76.4458 105 57.1477H91.875C91.875 69.2096 82.0619 79.0227 70 79.0227Z" fill="#40916C" fill-opacity="0.5"/>
</svg>
