<svg width="181" height="208" viewBox="0 0 181 208" fill="none" xmlns="http://www.w3.org/2000/svg">
<g filter="url(#filter0_f_2101_125)">
<path d="M97.6969 86.7548C97.5715 86.8684 97.4092 86.9329 97.24 86.9362H81.1812C80.612 86.9362 80.3233 86.2846 80.7182 85.9027L83.3547 83.3586C83.4777 83.2403 83.6411 83.1733 83.8117 83.1711H99.9326C100.509 83.1711 100.791 83.8287 100.391 84.2106L97.6969 86.7548ZM97.6969 99.291C97.5716 99.4041 97.4087 99.4666 97.24 99.4664H81.1812C80.612 99.4664 80.3233 98.8209 80.7182 98.4389L83.3547 95.8888C83.4782 95.7722 83.6419 95.7076 83.8117 95.7084H99.9326C100.509 95.7084 100.791 96.3599 100.391 96.7408L97.6969 99.291ZM97.6969 89.6177C97.5716 89.5046 97.4087 89.4421 97.24 89.4423H81.1812C80.612 89.4423 80.3233 90.0878 80.7182 90.4697L83.3547 93.0199C83.4802 93.1335 83.6425 93.198 83.8117 93.2013H99.9326C100.509 93.2013 100.791 92.5497 100.391 92.1678L97.6969 89.6177Z" fill="#D8F3DC"/>
<path d="M110.5 91.3189C110.5 102.337 101.571 111.268 90.5569 111.268C79.5428 111.268 70.6139 102.337 70.6139 91.3189C70.6139 80.3011 79.5428 71.3696 90.5569 71.3696C101.571 71.3696 110.5 80.3011 110.5 91.3189Z" fill="#D8F3DC" fill-opacity="0.1" stroke="#D8F3DC"/>
</g>
<path d="M110.5 91.3189C110.5 102.337 101.571 111.268 90.5569 111.268C79.5428 111.268 70.6139 102.337 70.6139 91.3189C70.6139 80.3011 79.5428 71.3696 90.5569 71.3696C101.571 71.3696 110.5 80.3011 110.5 91.3189Z" fill="#D8F3DC" fill-opacity="0.1" stroke="#D8F3DC"/>
<g clip-path="url(#clip0_2101_125)">
<path d="M91.0444 91.4643C91.0444 92.8749 88.7565 94.0181 85.9336 94.0181C83.1108 94.0181 80.8229 92.8749 80.8229 91.4643C80.8229 90.0538 83.1108 88.9106 85.9336 88.9106C88.7565 88.9106 91.0444 90.0538 91.0444 91.4643ZM91.0444 96.1462V97.8487C91.0444 99.5469 88.8476 100.828 85.9336 100.828C83.0197 100.828 80.8229 99.5469 80.8229 97.8487V96.1462C80.8229 97.824 82.9524 99.1255 85.9336 99.1255C88.9149 99.1255 91.0444 97.824 91.0444 96.1462ZM91.0444 92.7412V94.4437C91.0444 96.1419 88.8476 97.423 85.9336 97.423C83.0197 97.423 80.8229 96.1419 80.8229 94.4437V92.7412C80.8229 94.419 82.9524 95.7206 85.9336 95.7206C88.9149 95.7206 91.0444 94.419 91.0444 92.7412ZM96.1552 85.5057H89.3408V87.2081H96.1552V85.5057ZM97.0069 80.3982H88.489C86.1406 80.3982 84.23 82.3075 84.23 84.6544V87.3265C84.7692 87.249 85.3391 87.2081 85.9336 87.2081C86.5282 87.2081 87.098 87.249 87.6372 87.3265V85.5057C87.6372 84.5667 88.4013 83.8032 89.3408 83.8032H96.1552C97.0947 83.8032 97.8587 84.5667 97.8587 85.5057V87.2081C97.8587 88.1471 97.0947 88.9106 96.1552 88.9106H91.4967C92.0546 89.3992 92.4439 89.9747 92.6279 90.6131H93.5989C94.07 90.6131 94.4507 90.9945 94.4507 91.4643V92.3156C94.4507 92.7855 94.07 93.1668 93.5989 93.1668H92.7471V94.8693H97.0061C97.4771 94.8693 97.8579 95.2507 97.8579 95.7206C97.8579 96.1904 97.4771 96.5718 97.0061 96.5718H92.7471V97.8487C92.7471 99.0106 92.2216 100.036 91.3102 100.828H97.0061C99.3545 100.828 101.265 98.9187 101.265 96.5718V84.6544C101.265 82.3075 99.3553 80.3982 97.0069 80.3982ZM97.8587 92.3156C97.8587 92.7855 97.478 93.1668 97.0069 93.1668C96.5359 93.1668 96.1552 92.7855 96.1552 92.3156V91.4643C96.1552 90.9945 96.5359 90.6131 97.0069 90.6131C97.478 90.6131 97.8587 90.9945 97.8587 91.4643V92.3156Z" fill="#D8F3DC"/>
</g>
<line x1="71.3164" y1="90.616" x2="16" y2="90.616" stroke="url(#paint0_linear_2101_125)"/>
<line x1="90.057" y1="72.0725" x2="90.057" y2="42" stroke="url(#paint1_linear_2101_125)"/>
<line x1="89.8545" y1="110.565" x2="89.8545" y2="208" stroke="url(#paint2_linear_2101_125)"/>
<defs>
<filter id="filter0_f_2101_125" x="0.113892" y="0.869629" width="180.886" height="180.898" filterUnits="userSpaceOnUse" color-interpolation-filters="sRGB">
<feFlood flood-opacity="0" result="BackgroundImageFix"/>
<feBlend mode="normal" in="SourceGraphic" in2="BackgroundImageFix" result="shape"/>
<feGaussianBlur stdDeviation="35" result="effect1_foregroundBlur_2101_125"/>
</filter>
<linearGradient id="paint0_linear_2101_125" x1="71.3164" y1="89.616" x2="16" y2="89.616" gradientUnits="userSpaceOnUse">
<stop stop-color="#D8F3DC"/>
<stop offset="1" stop-color="#737373" stop-opacity="0"/>
</linearGradient>
<linearGradient id="paint1_linear_2101_125" x1="91.057" y1="72.0725" x2="91.057" y2="42" gradientUnits="userSpaceOnUse">
<stop stop-color="#D8F3DC"/>
<stop offset="1" stop-color="#737373" stop-opacity="0"/>
</linearGradient>
<linearGradient id="paint2_linear_2101_125" x1="88.8545" y1="110.565" x2="88.8545" y2="208" gradientUnits="userSpaceOnUse">
<stop stop-color="#D8F3DC"/>
<stop offset="1" stop-color="#737373" stop-opacity="0"/>
</linearGradient>
<clipPath id="clip0_2101_125">
<rect width="20.443" height="20.4298" fill="white" transform="translate(80.8229 80.3982)"/>
</clipPath>
</defs>
</svg>
