<svg width="182" height="208" viewBox="0 0 182 208" fill="none" xmlns="http://www.w3.org/2000/svg">
<g filter="url(#filter0_f_2101_123)">
<path d="M71.1295 90.7171C71.1295 101.735 80.0585 110.666 91.0726 110.666C102.087 110.666 111.016 101.735 111.016 90.7171C111.016 79.6993 102.087 70.7678 91.0726 70.7678C80.0585 70.7678 71.1295 79.6993 71.1295 90.7171Z" fill="#D8F3DC" fill-opacity="0.1" stroke="#D8F3DC"/>
<path d="M98.2125 86.1525C98.0871 86.2661 97.9248 86.3306 97.7556 86.3339H81.6968C81.1276 86.3339 80.839 85.6824 81.2338 85.3004L83.8704 82.7563C83.9933 82.638 84.1567 82.571 84.3273 82.5688H100.448C101.024 82.5688 101.307 83.2264 100.906 83.6084L98.2125 86.1525ZM98.2125 98.6887C98.0872 98.8018 97.9244 98.8643 97.7556 98.8641H81.6968C81.1276 98.8641 80.839 98.2186 81.2338 97.8366L83.8704 95.2865C83.9939 95.1699 84.1575 95.1053 84.3273 95.1061H100.448C101.024 95.1061 101.307 95.7576 100.906 96.1385L98.2125 98.6887ZM98.2125 89.0154C98.0872 88.9023 97.9244 88.8398 97.7556 88.84H81.6968C81.1276 88.84 80.839 89.4855 81.2338 89.8674L83.8704 92.4176C83.9958 92.5312 84.1581 92.5957 84.3273 92.599H100.448C101.024 92.599 101.307 91.9474 100.906 91.5655L98.2125 89.0154Z" fill="#D8F3DC"/>
</g>
<path d="M71.1295 90.7171C71.1295 101.735 80.0585 110.666 91.0726 110.666C102.087 110.666 111.016 101.735 111.016 90.7171C111.016 79.6993 102.087 70.7678 91.0726 70.7678C80.0585 70.7678 71.1295 79.6993 71.1295 90.7171Z" fill="#D8F3DC" fill-opacity="0.1" stroke="#D8F3DC"/>
<g clip-path="url(#clip0_2101_123)">
<path d="M92.0444 90.4643C92.0444 91.8749 89.7565 93.0181 86.9336 93.0181C84.1108 93.0181 81.8229 91.8749 81.8229 90.4643C81.8229 89.0538 84.1108 87.9106 86.9336 87.9106C89.7565 87.9106 92.0444 89.0538 92.0444 90.4643ZM92.0444 95.1462V96.8487C92.0444 98.5469 89.8476 99.828 86.9336 99.828C84.0197 99.828 81.8229 98.5469 81.8229 96.8487V95.1462C81.8229 96.824 83.9524 98.1255 86.9336 98.1255C89.9149 98.1255 92.0444 96.824 92.0444 95.1462ZM92.0444 91.7412V93.4437C92.0444 95.1419 89.8476 96.423 86.9336 96.423C84.0197 96.423 81.8229 95.1419 81.8229 93.4437V91.7412C81.8229 93.419 83.9524 94.7206 86.9336 94.7206C89.9149 94.7206 92.0444 93.419 92.0444 91.7412ZM97.1552 84.5057H90.3408V86.2081H97.1552V84.5057ZM98.0069 79.3982H89.489C87.1406 79.3982 85.23 81.3075 85.23 83.6544V86.3265C85.7692 86.249 86.3391 86.2081 86.9336 86.2081C87.5282 86.2081 88.098 86.249 88.6372 86.3265V84.5057C88.6372 83.5667 89.4013 82.8032 90.3408 82.8032H97.1552C98.0947 82.8032 98.8587 83.5667 98.8587 84.5057V86.2081C98.8587 87.1471 98.0947 87.9106 97.1552 87.9106H92.4967C93.0546 88.3992 93.4439 88.9747 93.6279 89.6131H94.5989C95.07 89.6131 95.4507 89.9945 95.4507 90.4643V91.3156C95.4507 91.7855 95.07 92.1668 94.5989 92.1668H93.7471V93.8693H98.0061C98.4771 93.8693 98.8579 94.2507 98.8579 94.7206C98.8579 95.1904 98.4771 95.5718 98.0061 95.5718H93.7471V96.8487C93.7471 98.0106 93.2216 99.0355 92.3102 99.828H98.0061C100.354 99.828 102.265 97.9187 102.265 95.5718V83.6544C102.265 81.3075 100.355 79.3982 98.0069 79.3982ZM98.8587 91.3156C98.8587 91.7855 98.478 92.1668 98.0069 92.1668C97.5359 92.1668 97.1552 91.7855 97.1552 91.3156V90.4643C97.1552 89.9945 97.5359 89.6131 98.0069 89.6131C98.478 89.6131 98.8587 89.9945 98.8587 90.4643V91.3156Z" fill="#D8F3DC"/>
</g>
<line y1="-0.5" x2="55.3165" y2="-0.5" transform="matrix(1 0 0 -1 110.313 89.5132)" stroke="url(#paint0_linear_2101_123)"/>
<line y1="-0.5" x2="30.0725" y2="-0.5" transform="matrix(0 -1 -1 0 91.0725 71.4685)" stroke="url(#paint1_linear_2101_123)"/>
<line y1="-0.5" x2="97.4348" y2="-0.5" transform="matrix(0 1 1 0 92.275 109.964)" stroke="url(#paint2_linear_2101_123)"/>
<defs>
<filter id="filter0_f_2101_123" x="0.629517" y="0.267822" width="180.886" height="180.898" filterUnits="userSpaceOnUse" color-interpolation-filters="sRGB">
<feFlood flood-opacity="0" result="BackgroundImageFix"/>
<feBlend mode="normal" in="SourceGraphic" in2="BackgroundImageFix" result="shape"/>
<feGaussianBlur stdDeviation="35" result="effect1_foregroundBlur_2101_123"/>
</filter>
<linearGradient id="paint0_linear_2101_123" x1="0" y1="0.5" x2="55.3165" y2="0.5" gradientUnits="userSpaceOnUse">
<stop stop-color="#D8F3DC"/>
<stop offset="1" stop-color="#737373" stop-opacity="0"/>
</linearGradient>
<linearGradient id="paint1_linear_2101_123" x1="0" y1="0.5" x2="30.0725" y2="0.5" gradientUnits="userSpaceOnUse">
<stop stop-color="#D8F3DC"/>
<stop offset="1" stop-color="#737373" stop-opacity="0"/>
</linearGradient>
<linearGradient id="paint2_linear_2101_123" x1="0" y1="0.5" x2="97.4348" y2="0.5" gradientUnits="userSpaceOnUse">
<stop stop-color="#D8F3DC"/>
<stop offset="1" stop-color="#737373" stop-opacity="0"/>
</linearGradient>
<clipPath id="clip0_2101_123">
<rect width="20.443" height="20.4298" fill="white" transform="translate(81.8229 79.3982)"/>
</clipPath>
</defs>
</svg>
